<svg width="18" height="18" viewBox="0 0 18 18" fill="none" xmlns="http://www.w3.org/2000/svg">
<path d="M15.4583 5.09169H13.8916C13.7333 2.52503 11.6033 0.486694 8.99996 0.486694C6.39663 0.486694 4.26663 2.52669 4.10829 5.09169H2.54163C1.50829 5.09169 0.666626 5.93086 0.666626 6.96669V15.4917C0.666626 16.525 1.50829 17.3667 2.54163 17.3667H15.4583C16.4916 17.3667 17.3333 16.525 17.3333 15.4917V6.96669C17.3333 5.93169 16.4916 5.09169 15.4583 5.09169ZM9.62496 12.0725V13.2359C9.62496 13.5809 9.34496 13.8609 8.99996 13.8609C8.65496 13.8609 8.37496 13.5809 8.37496 13.2359V12.0725C7.73829 11.8225 7.28579 11.2059 7.28579 10.4809C7.28579 9.53336 8.05246 8.76586 8.99996 8.76586C9.94663 8.76586 10.7141 9.53253 10.7141 10.4792C10.7141 11.2042 10.2616 11.8209 9.62496 12.0709V12.0725ZM5.37329 5.09169C5.53163 3.21669 7.08746 1.73669 8.99996 1.73669C10.9125 1.73669 12.4691 3.21753 12.6266 5.08919H5.37329V5.09169Z" fill="#D9D9D9"/>
</svg>
