<svg width="18" height="18" viewBox="0 0 18 18" fill="none" xmlns="http://www.w3.org/2000/svg">
<path d="M9 17.9584C4.06 17.9584 0.0416641 13.94 0.0416641 9.00002C0.0416641 4.06002 4.06 0.041687 9 0.041687C13.94 0.041687 17.9583 4.06002 17.9583 9.00002C17.9583 13.94 13.94 17.9584 9 17.9584ZM9 1.29169C4.75 1.29169 1.29166 4.75002 1.29166 9.00002C1.29166 13.25 4.75 16.7084 9 16.7084C13.25 16.7084 16.7083 13.25 16.7083 9.00002C16.7083 4.75002 13.25 1.29169 9 1.29169Z" fill="#1D9BF0"/>
<path d="M9 13.2625C7.42333 13.2625 5.9725 12.4709 5.12 11.1425C4.93333 10.8525 5.0175 10.4675 5.30833 10.28C5.59833 10.0917 5.985 10.1767 6.17167 10.4684C6.79417 11.4367 7.85167 12.0142 9.00083 12.0142C10.15 12.0142 11.2075 11.4367 11.8308 10.4692C12.0175 10.1775 12.4042 10.0942 12.6942 10.2817C12.9858 10.4684 13.0692 10.855 12.8825 11.145C12.0283 12.4734 10.5775 13.2659 9.00083 13.2659L9 13.2625Z" fill="#1D9BF0"/>
<path d="M11.2817 8.11336C11.9619 8.11336 12.5133 7.56192 12.5133 6.88169C12.5133 6.20146 11.9619 5.65002 11.2817 5.65002C10.6014 5.65002 10.05 6.20146 10.05 6.88169C10.05 7.56192 10.6014 8.11336 11.2817 8.11336Z" fill="#1D9BF0"/>
<path d="M6.71832 8.11336C7.39855 8.11336 7.94999 7.56192 7.94999 6.88169C7.94999 6.20146 7.39855 5.65002 6.71832 5.65002C6.03809 5.65002 5.48666 6.20146 5.48666 6.88169C5.48666 7.56192 6.03809 8.11336 6.71832 8.11336Z" fill="#1D9BF0"/>
</svg>
