<svg width="75" height="34" viewBox="0 0 75 34" fill="none" xmlns="http://www.w3.org/2000/svg">
<rect width="75" height="34" fill="black"/>
<rect width="34" height="34" rx="17" fill="black"/>
<path d="M21.6083 13.225L17.4417 9.05834C17.1975 8.81417 16.8017 8.81417 16.5583 9.05834L12.3917 13.225C12.1467 13.4692 12.1467 13.865 12.3917 14.1083C12.6367 14.3517 13.0308 14.3533 13.275 14.1083L16.375 11.0083V19.5C16.375 19.845 16.655 20.125 17 20.125C17.345 20.125 17.625 19.845 17.625 19.5V11.0083L20.725 14.1083C20.8467 14.2308 21.0067 14.2917 21.1667 14.2917C21.3267 14.2917 21.4867 14.2317 21.6083 14.1083C21.8525 13.8642 21.8525 13.4692 21.6083 13.225Z" fill="#6E767D"/>
<path d="M23.4233 25.2867H10.5767C9.52334 25.2867 8.66667 24.43 8.66667 23.3767V18.6667C8.66667 18.3217 8.94667 18.0417 9.29167 18.0417C9.63667 18.0417 9.91667 18.3217 9.91667 18.6667V23.3767C9.91667 23.7408 10.2125 24.0367 10.5767 24.0367H23.4233C23.7875 24.0367 24.0833 23.7408 24.0833 23.3767V18.6667C24.0833 18.3217 24.3633 18.0417 24.7083 18.0417C25.0533 18.0417 25.3333 18.3217 25.3333 18.6667V23.3767C25.3333 24.43 24.4767 25.2867 23.4233 25.2867Z" fill="#6E767D"/>
</svg>
